<?xml version="1.0" encoding="UTF-8"?><svg id="Layer_2" xmlns="http://www.w3.org/2000/svg" xmlns:xlink="http://www.w3.org/1999/xlink" viewBox="0 0 407.56 96"><defs><style>.cls-1{fill:#fff;}.cls-2{fill:url(#linear-gradient);}</style><linearGradient id="linear-gradient" x1="6.44" y1="72" x2="89.56" y2="24" gradientUnits="userSpaceOnUse"><stop offset="0" stop-color="#464666"/><stop offset=".5" stop-color="#688fc6"/><stop offset="1" stop-color="#b7e5fc"/></linearGradient></defs><g id="Layer_1-2"><path class="cls-2" d="M48,96C21.53,96,0,74.47,0,48S21.53,0,48,0s48,21.53,48,48-21.53,48-48,48ZM48,12.52c-19.56,0-35.48,15.92-35.48,35.48s15.92,35.48,35.48,35.48,35.48-15.92,35.48-35.48S67.56,12.52,48,12.52Z"/><circle class="cls-1" cx="29.84" cy="48" r="4.65"/><circle class="cls-1" cx="48" cy="48" r="4.65"/><circle class="cls-1" cx="66.16" cy="48" r="4.65"/><path class="cls-1" d="M136.98,62.59c-2.83,0-5.41-.58-7.73-1.73-2.32-1.15-4.32-2.68-5.98-4.59-1.66-1.91-2.95-4.09-3.85-6.55-.91-2.46-1.36-4.97-1.36-7.54s.48-5.25,1.45-7.71c.96-2.46,2.29-4.63,3.99-6.52,1.7-1.89,3.71-3.39,6.03-4.5,2.32-1.11,4.84-1.67,7.56-1.67s5.4.6,7.71,1.79c2.3,1.19,4.29,2.75,5.95,4.67,1.66,1.93,2.95,4.11,3.85,6.54.91,2.44,1.36,4.92,1.36,7.45,0,2.68-.48,5.25-1.44,7.71-.96,2.46-2.29,4.62-3.97,6.49-1.68,1.87-3.68,3.36-6.01,4.48-2.32,1.11-4.84,1.67-7.56,1.67ZM123.21,42.19c0,2.04.33,4.01.99,5.92.66,1.91,1.6,3.6,2.8,5.07,1.21,1.47,2.66,2.64,4.36,3.51,1.7.87,3.59,1.3,5.67,1.3s4.08-.46,5.78-1.39c1.7-.93,3.14-2.13,4.33-3.63,1.19-1.49,2.1-3.18,2.72-5.07.62-1.89.93-3.8.93-5.72,0-2.04-.33-4.01-.99-5.92-.66-1.91-1.61-3.59-2.83-5.04-1.23-1.45-2.68-2.62-4.36-3.48-1.68-.87-3.54-1.3-5.58-1.3-2.15,0-4.08.45-5.78,1.36s-3.15,2.1-4.34,3.57c-1.19,1.47-2.11,3.15-2.75,5.04-.64,1.89-.96,3.82-.96,5.78Z"/><path class="cls-1" d="M177.61,37.09c-2.49.08-4.69.72-6.6,1.93-1.91,1.21-3.26,2.89-4.05,5.04v18.25h-4.99v-29.58h4.65v6.86c1.02-2.04,2.36-3.69,4.02-4.96,1.66-1.27,3.44-1.97,5.33-2.13h.96c.26,0,.49.02.68.06v4.53Z"/><path class="cls-1" d="M182.54,27.18v-6.23h4.99v6.23h-4.99ZM182.54,62.31v-29.58h4.99v29.58h-4.99Z"/><path class="cls-1" d="M208.49,62.87c-2.23,0-4.26-.42-6.09-1.25-1.83-.83-3.4-1.95-4.7-3.34-1.3-1.4-2.31-3.02-3.03-4.87-.72-1.85-1.08-3.8-1.08-5.84s.37-4.04,1.1-5.89c.74-1.85,1.76-3.48,3.06-4.87,1.3-1.4,2.87-2.51,4.7-3.34,1.83-.83,3.84-1.25,6.04-1.25s4.21.42,6.06,1.25c1.85.83,3.43,1.95,4.73,3.34,1.3,1.4,2.32,3.02,3.06,4.87.74,1.85,1.11,3.82,1.11,5.89s-.36,3.99-1.08,5.84c-.72,1.85-1.74,3.48-3.06,4.87-1.32,1.4-2.9,2.51-4.73,3.34-1.83.83-3.86,1.25-6.09,1.25ZM198.69,47.63c0,1.55.26,2.98.76,4.31.51,1.32,1.21,2.47,2.1,3.46.89.98,1.93,1.76,3.12,2.32,1.19.57,2.46.85,3.82.85s2.63-.28,3.82-.85c1.19-.57,2.24-1.35,3.15-2.35.91-1,1.61-2.17,2.12-3.51.51-1.34.76-2.79.76-4.33s-.25-2.94-.76-4.28c-.51-1.34-1.22-2.51-2.12-3.51-.91-1-1.96-1.78-3.15-2.35-1.19-.57-2.46-.85-3.82-.85s-2.64.29-3.82.88c-1.19.59-2.23,1.38-3.12,2.38-.89,1-1.59,2.17-2.1,3.51-.51,1.34-.76,2.79-.76,4.34Z"/><path class="cls-1" d="M255.18,62.31h-4.99v-16.55c0-3.17-.48-5.48-1.44-6.91-.96-1.44-2.43-2.15-4.39-2.15-1.02,0-2.04.2-3.06.6-1.02.4-1.98.93-2.89,1.62-.91.68-1.7,1.49-2.38,2.44-.68.94-1.19,1.98-1.53,3.12v17.85h-4.99v-29.58h4.53v6.35c1.17-2.08,2.86-3.74,5.07-4.99s4.62-1.87,7.22-1.87c1.7,0,3.12.31,4.25.93s2.04,1.49,2.72,2.61c.68,1.11,1.16,2.43,1.44,3.94.28,1.51.43,3.15.43,4.93v17.68Z"/><path class="cls-1" d="M287.37,30.52c-.45-.53-1.06-1.04-1.81-1.53-.76-.49-1.61-.93-2.55-1.33s-1.97-.72-3.09-.96c-1.12-.25-2.28-.37-3.49-.37-3.14,0-5.43.59-6.88,1.76-1.45,1.17-2.18,2.78-2.18,4.82,0,1.1.21,2,.62,2.72.42.72,1.07,1.33,1.96,1.84.89.51,1.99.95,3.31,1.33,1.32.38,2.89.77,4.7,1.19,2.08.45,3.96.97,5.64,1.56,1.68.59,3.12,1.31,4.31,2.18,1.19.87,2.1,1.93,2.72,3.17.62,1.25.94,2.78.94,4.59,0,1.93-.38,3.6-1.13,5.02-.76,1.42-1.78,2.59-3.09,3.51-1.3.93-2.84,1.61-4.62,2.04-1.78.43-3.7.65-5.78.65-3.1,0-6.03-.48-8.81-1.44-2.78-.96-5.3-2.37-7.56-4.22l2.44-4.31c.6.64,1.39,1.28,2.35,1.93.96.64,2.06,1.22,3.29,1.73,1.23.51,2.55.93,3.97,1.25,1.42.32,2.9.48,4.45.48,2.87,0,5.1-.51,6.69-1.53,1.59-1.02,2.38-2.55,2.38-4.59,0-1.13-.25-2.09-.76-2.86-.51-.77-1.26-1.45-2.24-2.01-.98-.57-2.2-1.07-3.65-1.5-1.46-.43-3.11-.88-4.96-1.33-2.04-.49-3.83-1.02-5.38-1.59-1.55-.57-2.84-1.25-3.88-2.04-1.04-.79-1.82-1.76-2.35-2.89-.53-1.13-.79-2.49-.79-4.08,0-1.93.36-3.63,1.08-5.1.72-1.47,1.72-2.72,3-3.74,1.28-1.02,2.81-1.79,4.59-2.29,1.78-.51,3.7-.76,5.78-.76,2.72,0,5.18.42,7.37,1.25,2.19.83,4.14,1.95,5.84,3.34l-2.38,4.14Z"/><path class="cls-1" d="M318.31,62.31l-10.2-14.45-5.67,5.33v9.12h-4.99V20.94h4.99v27.2l15.19-15.36h5.5l-11.79,12.24,12.35,17.28h-5.38Z"/><path class="cls-1" d="M329.36,70.35c.49.08.98.13,1.47.17.49.04.87.06,1.13.06.45,0,.86-.1,1.22-.31.36-.21.72-.61,1.08-1.22.36-.6.76-1.44,1.22-2.52.45-1.08,1.02-2.48,1.7-4.22l-12.52-29.58h5.16l10.09,25.1,9.18-25.1h4.76l-14.39,37.34c-.53,1.32-1.41,2.48-2.63,3.49-1.23,1-2.92,1.5-5.07,1.5-.34,0-.69-.02-1.05-.06-.36-.04-.8-.11-1.33-.23v-4.42Z"/><path class="cls-1" d="M376.22,58c2.34,0,4.29-.45,5.84-1.36,1.55-.91,2.79-2.09,3.71-3.54.93-1.45,1.58-3.12,1.96-4.99.38-1.87.57-3.77.57-5.69v-20.34h5.1v20.34c0,2.72-.31,5.3-.93,7.73-.62,2.44-1.62,4.58-2.97,6.43-1.36,1.85-3.13,3.32-5.3,4.39-2.17,1.08-4.81,1.62-7.91,1.62s-5.91-.57-8.1-1.7c-2.19-1.13-3.96-2.63-5.3-4.5-1.34-1.87-2.3-4.02-2.89-6.46-.59-2.44-.88-4.94-.88-7.51v-20.34h5.1v20.34c0,2,.2,3.94.6,5.81s1.06,3.52,1.98,4.96c.93,1.44,2.15,2.6,3.68,3.49,1.53.89,3.45,1.33,5.75,1.33Z"/><path class="cls-1" d="M402.46,62.31V22.08h5.1v40.23h-5.1Z"/></g></svg>